<?xml version="1.0" encoding="utf-8"?>
<!-- Generator: Adobe Illustrator 25.2.3, SVG Export Plug-In . SVG Version: 6.00 Build 0)  -->
<svg version="1.1" id="Layer_2" xmlns="http://www.w3.org/2000/svg" xmlns:xlink="http://www.w3.org/1999/xlink" x="0px" y="0px"
	 viewBox="0 0 156 35.8" style="enable-background:new 0 0 156 35.8;" xml:space="preserve">
<style type="text/css">
	.st0{fill:#5830E0;}
	.st1{fill:#081828;}
	.st2{fill:none;stroke:#081828;stroke-width:3;stroke-miterlimit:10;}
</style>
<g>
	<path class="st0" d="M60.2,28.7H46.8V7.2h13.4v3h-9.9v6.1h9.3v2.9h-9.3v6.5h9.9V28.7z"/>
	<path class="st0" d="M63.3,23.9c0-3,2-4.8,5.9-4.8h4.2v-1.6c0-1.9-1.1-3-3.1-3c-1.9,0-3,1-3.1,2.5h-3.3c0.1-2.8,2-5.2,6.5-5.2
		c3.7,0,6.5,1.8,6.5,5.6v11.3h-3.3v-2h-0.1c-0.7,1.3-2.2,2.3-4.6,2.3C65.5,28.9,63.3,27,63.3,23.9z M73.4,23.2v-1.8h-3.6
		c-2,0-3,1-3,2.3c0,1.7,1.4,2.6,3,2.6C71.8,26.2,73.4,25,73.4,23.2z"/>
	<path class="st0" d="M86.9,11.7c3.9,0,6.2,2.1,6.2,5.1h-3.1c-0.1-1.2-0.8-2.5-3.1-2.5c-1.8,0-3,0.8-3,2.2c0,1.7,2.3,2.1,4.2,2.4
		c3.1,0.6,5.5,1.5,5.5,4.7c0,3.4-2.7,5.3-6.9,5.3c-4,0-6.5-1.9-6.5-4.9h3.4c0.2,1.4,1.4,2.3,3.3,2.3c2.2,0,3.2-1.1,3.2-2.3
		c0-1.7-1.9-2-4.2-2.5c-3-0.6-5.5-1.7-5.5-4.7C80.5,13.3,83.6,11.7,86.9,11.7z"/>
	<path class="st0" d="M104.9,28.4l-0.4,1.1c-1.4,3.7-3.2,4.9-6.5,4.9c-0.6,0-1.4-0.1-1.8-0.2v-2.6c0.3,0,0.8,0.1,1.3,0.1
		c1.9,0,2.8-0.6,3.1-2.3l0.2-0.7L94.9,12h3.9l4,13.2h0.1l4-13.2h3.7C109.9,14.3,104.9,28.4,104.9,28.4z"/>
</g>
<g>
	<g>
		<path class="st1" d="M127.6,13.5c-0.3-2.7-2.3-4.7-5.6-4.7c-3.9,0-6.2,2.8-6.2,7.4v3.3c0,4.8,2.2,7.7,6.3,7.7c3.3,0,5.6-2,5.6-5
			v-2.4h-5.9v-2h8v4.4c0,4.1-3.3,7-7.8,7c-5.5,0-8.4-3.6-8.4-9.7v-3.3c0-5.8,3.1-9.4,8.3-9.4c4.5,0,7.5,2.8,7.8,6.7H127.6z"/>
		<path class="st1" d="M135.5,6.6c0.8,0,1.5,0.7,1.5,1.5c0,0.9-0.7,1.5-1.5,1.5c-0.8,0-1.5-0.7-1.5-1.5
			C133.9,7.3,134.6,6.6,135.5,6.6z M134.4,12.2h2.2v16.5h-2.2V12.2z"/>
		<path class="st1" d="M152.6,28.5v-2.9h-0.1c-0.6,1.5-2.6,2.8-4.9,2.8c-3.8,0-6.6-2.7-6.6-7.5v-1.6c0-4.7,2.7-7.4,6.6-7.4
			c2.3,0,4.2,1.3,4.9,2.8h0.1v-2.5h2.1v16.2c0,4-3,6.2-6.8,6.2c-3.9,0-6.1-2-6.5-4.7h2.3c0.3,1.5,1.8,2.8,4.2,2.8
			C150.7,32.7,152.6,31.1,152.6,28.5z M143.2,19.6v1.2c0,3.5,1.8,5.7,4.7,5.7c2.9,0,4.6-2.2,4.6-5.7v-1.2c0-3.5-1.8-5.7-4.6-5.7
			C145,13.8,143.2,16,143.2,19.6z"/>
	</g>
</g>
<g>
	<g>
		<path class="st2" d="M14.3,27.3C12.4,33,4.8,33,4.8,33s0-7.6,5.7-9.5"/>
		<path class="st2" d="M31.3,14L20,25.4l-7.6-7.6L23.8,6.4c4.3-4.3,8.6-4.3,10.5-4c0.6,0.1,1,0.5,1.1,1.1C35.6,5.4,35.6,9.7,31.3,14
			z"/>
		<path class="st2" d="M29.4,15.9v10.8c0,0.4-0.1,0.7-0.4,0.9l-5.4,5.4c-0.5,0.5-1.4,0.5-1.9,0c-0.2-0.2-0.3-0.4-0.4-0.7l-1.4-7"/>
		<path class="st2" d="M21.9,8.3H11c-0.4,0-0.7,0.1-0.9,0.4l-5.4,5.4c-0.5,0.5-0.5,1.4,0,1.9c0.2,0.2,0.4,0.3,0.7,0.4l7,1.4"/>
	</g>
</g>
</svg>
